<?xml version="1.0" encoding="UTF-8"?>
<!DOCTYPE svg PUBLIC "-//W3C//DTD SVG 1.1//EN" "http://www.w3.org/Graphics/SVG/1.1/DTD/svg11.dtd">
<svg xmlns="http://www.w3.org/2000/svg" version="1.1" width="500px" height="500px" style="shape-rendering:geometricPrecision; text-rendering:geometricPrecision; image-rendering:optimizeQuality; fill-rule:evenodd; clip-rule:evenodd" xmlns:xlink="http://www.w3.org/1999/xlink">
<g><path style="opacity:1" fill="#f1e8e7" d="M 294.5,11.5 C 295.568,12.4345 296.901,12.7678 298.5,12.5C 304.243,13.1154 309.909,14.1154 315.5,15.5C 315.842,16.3382 316.508,16.6716 317.5,16.5C 346.986,23.2449 373.986,35.4115 398.5,53C 399.794,55.087 400.961,57.2537 402,59.5C 405.576,56.5465 409.409,56.0465 413.5,58C 436.509,65.5872 453.676,80.0872 465,101.5C 471.588,114.74 475.755,128.407 477.5,142.5C 477.232,144.099 477.566,145.432 478.5,146.5C 482.556,159.168 486.723,171.835 491,184.5C 494.262,195.977 496.429,207.643 497.5,219.5C 497.232,221.099 497.566,222.432 498.5,223.5C 498.198,226.059 498.532,228.393 499.5,230.5C 499.5,243.5 499.5,256.5 499.5,269.5C 498.578,273.995 497.911,278.662 497.5,283.5C 496.566,284.568 496.232,285.901 496.5,287.5C 496.675,289.621 496.341,291.621 495.5,293.5C 494.549,294.919 494.216,296.585 494.5,298.5C 476.302,378.183 430.302,435.349 356.5,470C 338.257,478.144 319.257,483.644 299.5,486.5C 297.585,486.216 295.919,486.549 294.5,487.5C 198.643,498.306 121.477,465.639 63,389.5C 50.3876,371.611 40.3876,352.278 33,331.5C 19.3078,319.116 11.1411,303.783 8.5,285.5C 8.76781,283.901 8.43448,282.568 7.5,281.5C 6.31235,266.961 8.47902,252.961 14,239.5C 18.158,234.479 22.658,233.813 27.5,237.5C 27.8333,238.5 28.5,239.167 29.5,239.5C 29.5,239.833 29.5,240.167 29.5,240.5C 29.5,242.5 29.5,244.5 29.5,246.5C 26.7201,281.5 42.0535,303.666 75.5,313C 87.1429,314.832 98.8096,314.999 110.5,313.5C 112.833,313.5 115.167,313.5 117.5,313.5C 119.062,313.733 120.395,314.4 121.5,315.5C 126.038,328.47 130.371,341.137 134.5,353.5C 134.328,354.492 134.662,355.158 135.5,355.5C 136.228,357.512 137.062,359.512 138,361.5C 149.311,353.768 160.811,346.434 172.5,339.5C 163.96,342.768 155.627,346.602 147.5,351C 142.556,352.407 138.556,351.241 135.5,347.5C 131.222,336.608 127.222,325.608 123.5,314.5C 123.672,313.508 123.338,312.842 122.5,312.5C 122.082,311.778 121.416,311.278 120.5,311C 120.833,310.667 121.167,310.333 121.5,310C 120.809,308.933 120.309,307.766 120,306.5C 99.7791,310.811 80.2791,308.645 61.5,300C 48.117,291.65 39.117,280.817 34.5,267.5C 34.6716,266.508 34.3382,265.842 33.5,265.5C 31.1236,259.425 30.1236,253.092 30.5,246.5C 30.9926,244.194 31.3259,241.861 31.5,239.5C 31.6741,237.139 32.0074,234.806 32.5,232.5C 23.5,233.5 19.5,229.5 20.5,220.5C 21.4345,219.432 21.7678,218.099 21.5,216.5C 34.5208,133.92 77.8542,73.0862 151.5,34C 173.643,23.001 196.643,15.8344 220.5,12.5C 221.791,12.7373 222.791,12.404 223.5,11.5C 247.175,7.56504 270.842,7.56504 294.5,11.5 Z M 251.5,17.5 C 301.814,16.7762 347.814,30.2762 389.5,58C 374.376,54.7101 359.043,53.8768 343.5,55.5C 341.741,54.7386 340.074,55.0719 338.5,56.5C 303.435,61.1983 273.768,76.1983 249.5,101.5C 243.224,106.107 237.557,111.441 232.5,117.5C 230.5,118.833 228.833,120.5 227.5,122.5C 210.299,141.021 192.965,159.521 175.5,178C 159.988,192.853 143.321,206.186 125.5,218C 113.013,225.439 99.6792,230.605 85.5,233.5C 81.4211,233.669 80.9211,234.669 84,236.5C 84.7648,236.43 85.2648,236.097 85.5,235.5C 101.712,237.039 117.378,234.539 132.5,228C 152.452,219.03 171.118,208.03 188.5,195C 210.833,176 233.167,157 255.5,138C 270.468,125.845 286.468,115.178 303.5,106C 320.122,97.2091 337.789,93.5424 356.5,95C 387.412,100.959 405.745,119.459 411.5,150.5C 410.561,151.327 410.895,151.994 412.5,152.5C 412.5,153.833 412.5,155.167 412.5,156.5C 412.5,161.167 412.5,165.833 412.5,170.5C 410.602,189.961 402.602,206.295 388.5,219.5C 388.672,218.508 388.338,217.842 387.5,217.5C 387.5,216.833 387.5,216.167 387.5,215.5C 389.382,214.779 389.715,213.779 388.5,212.5C 388.5,211.5 388.5,210.5 388.5,209.5C 390.109,208.335 390.443,207.001 389.5,205.5C 391.95,189.11 391.45,172.777 388,156.5C 386.629,151.536 384.796,146.869 382.5,142.5C 382.573,140.973 381.906,139.973 380.5,139.5C 380.205,141.735 380.539,143.735 381.5,145.5C 382.789,156.169 382.789,166.835 381.5,177.5C 379.618,178.221 379.285,179.221 380.5,180.5C 378.17,192.49 373.17,203.157 365.5,212.5C 362.833,214.5 360.5,216.833 358.5,219.5C 357.518,220.141 356.518,220.807 355.5,221.5C 352.486,199.97 345.319,179.637 334,160.5C 331.715,157.568 329.215,154.902 326.5,152.5C 325.828,151.733 324.995,151.066 324,150.5C 323.652,152.14 324.152,153.473 325.5,154.5C 331.842,170.21 335.509,186.543 336.5,203.5C 336.249,208.18 335.916,212.846 335.5,217.5C 333.895,218.006 333.561,218.673 334.5,219.5C 334.5,219.833 334.5,220.167 334.5,220.5C 333.596,221.209 333.263,222.209 333.5,223.5C 331.533,223.739 329.699,223.406 328,222.5C 326.698,223.085 325.531,223.751 324.5,224.5C 262.104,230.133 207.27,253.133 160,293.5C 159.536,294.094 159.369,294.761 159.5,295.5C 156.677,296.148 155.177,297.814 155,300.5C 157.167,299.512 159,298.179 160.5,296.5C 204.899,275.035 251.565,261.035 300.5,254.5C 301.117,254.611 301.617,254.944 302,255.5C 304.277,254.883 306.444,254.216 308.5,253.5C 337.08,251.232 365.413,252.899 393.5,258.5C 397.297,271.892 401.297,285.226 405.5,298.5C 404.561,299.327 404.895,299.994 406.5,300.5C 405.185,301.895 405.519,302.895 407.5,303.5C 406.294,304.88 406.627,306.047 408.5,307C 406.19,307.497 403.857,307.663 401.5,307.5C 401.038,306.12 400.038,305.453 398.5,305.5C 389.351,306.114 380.351,306.781 371.5,307.5C 310.928,308.113 253.928,322.613 200.5,351C 188.615,358.103 177.282,365.936 166.5,374.5C 166.565,374.062 166.399,373.728 166,373.5C 165.623,374.942 164.79,375.942 163.5,376.5C 162.922,375.453 162.256,375.62 161.5,377C 161.728,377.399 162.062,377.565 162.5,377.5C 162.167,378.5 161.5,379.167 160.5,379.5C 160.082,380.222 159.416,380.722 158.5,381C 161.923,380.956 164.923,379.79 167.5,377.5C 208.911,360.475 251.578,347.475 295.5,338.5C 295.435,338.938 295.601,339.272 296,339.5C 296.995,338.934 297.828,338.267 298.5,337.5C 310.498,335.834 322.498,334.167 334.5,332.5C 336.259,333.261 337.926,332.928 339.5,331.5C 345.516,331.407 351.516,331.074 357.5,330.5C 358.15,330.804 358.817,331.137 359.5,331.5C 362.311,330.92 364.977,330.254 367.5,329.5C 389.935,329.24 412.269,330.574 434.5,333.5C 436.218,334.224 438.052,334.891 440,335.5C 442.168,334.178 442.001,333.511 439.5,333.5C 432.962,310.346 425.962,287.346 418.5,264.5C 419.439,263.673 419.105,263.006 417.5,262.5C 416.133,256.901 414.467,251.401 412.5,246C 427.888,226.728 439.221,205.228 446.5,181.5C 448.481,180.895 448.815,179.895 447.5,178.5C 449.26,174.453 450.26,170.12 450.5,165.5C 452.481,164.895 452.815,163.895 451.5,162.5C 452.244,158.881 452.577,155.215 452.5,151.5C 453.306,150.003 453.972,148.336 454.5,146.5C 453.167,143.167 453.167,139.833 454.5,136.5C 454.058,135.261 453.391,134.261 452.5,133.5C 451.021,110.547 442.021,91.2141 425.5,75.5C 425.167,74.1667 424.833,74.1667 424.5,75.5C 420.463,72.8202 416.463,70.1535 412.5,67.5C 421.814,70.1486 429.814,74.8153 436.5,81.5C 436.833,82.8333 437.167,82.8333 437.5,81.5C 452.727,95.603 462.56,112.936 467,133.5C 468.519,140.801 469.852,148.134 471,155.5C 486.839,191.867 493.339,229.867 490.5,269.5C 489.766,270.878 489.099,272.378 488.5,274C 488.728,274.399 489.062,274.565 489.5,274.5C 489.5,275.833 489.5,277.167 489.5,278.5C 487.655,279.995 487.322,281.662 488.5,283.5C 487.908,286.127 487.575,288.794 487.5,291.5C 486.733,292.172 486.066,293.005 485.5,294C 485.728,294.399 486.062,294.565 486.5,294.5C 486.336,297.674 485.336,300.507 483.5,303C 483.957,303.414 484.291,303.914 484.5,304.5C 483.184,308.429 482.184,312.429 481.5,316.5C 479.895,317.006 479.561,317.673 480.5,318.5C 451.74,402.089 394.406,454.589 308.5,476C 219.735,492.078 144.901,467.245 84,401.5C 64.7329,378.984 50.0662,353.65 40,325.5C 17.8985,304.437 11.0652,279.104 19.5,249.5C 20.3382,249.842 20.6716,250.508 20.5,251.5C 20.5,255.833 20.5,260.167 20.5,264.5C 18.9893,266.838 19.3227,267.504 21.5,266.5C 21.298,268.95 21.6314,271.283 22.5,273.5C 21.1854,274.895 21.5188,275.895 23.5,276.5C 22.1854,277.895 22.5188,278.895 24.5,279.5C 34.4923,305.526 53.4923,320.026 81.5,323C 92.5743,323.83 103.574,323.33 114.5,321.5C 120.312,340.117 126.479,358.117 133,375.5C 155.13,360.059 178.297,346.226 202.5,334C 226.096,322.523 250.763,314.357 276.5,309.5C 276.435,309.938 276.601,310.272 277,310.5C 280.41,309.126 280.243,308.459 276.5,308.5C 229.391,308.319 185.224,319.652 144,342.5C 137.892,327.95 132.059,313.283 126.5,298.5C 125.947,296.448 124.947,296.115 123.5,297.5C 111.57,299.371 99.5697,299.871 87.5,299C 58.4799,293.662 42.4799,276.662 39.5,248C 40.5408,232.593 47.5408,220.593 60.5,212C 80.7886,199.514 102.789,191.68 126.5,188.5C 135.714,187.213 135.714,186.546 126.5,186.5C 105.726,184.972 85.3926,187.472 65.5,194C 50.304,198.994 38.4707,208.16 30,221.5C 40.7692,145.43 78.9359,87.597 144.5,48C 175.011,30.9962 207.678,21.1629 242.5,18.5C 245.557,19.1601 248.557,18.8268 251.5,17.5 Z M 397.5,67.5 C 397.783,66.7109 398.283,66.0442 399,65.5C 399.131,68.3712 400.297,70.7046 402.5,72.5C 425.905,83.9552 439.572,102.622 443.5,128.5C 442.739,130.259 443.072,131.926 444.5,133.5C 444.5,139.167 444.5,144.833 444.5,150.5C 443.733,151.172 443.066,152.005 442.5,153C 442.728,153.399 443.062,153.565 443.5,153.5C 443.5,155.167 443.5,156.833 443.5,158.5C 442.733,159.172 442.066,160.005 441.5,161C 441.728,161.399 442.062,161.565 442.5,161.5C 436.655,190.204 424.488,216.204 406,239.5C 404.092,242.206 403.259,245.206 403.5,248.5C 402.167,249.5 402.167,250.5 403.5,251.5C 403.66,253.153 404.326,254.486 405.5,255.5C 405.232,257.099 405.566,258.432 406.5,259.5C 406.5,260.833 407.167,261.5 408.5,261.5C 408.5,261.833 408.5,262.167 408.5,262.5C 407.167,263.5 407.167,264.5 408.5,265.5C 408.131,267.993 408.797,268.66 410.5,267.5C 410.5,267.833 410.5,268.167 410.5,268.5C 409.588,269.738 409.421,271.072 410,272.5C 410.278,271.584 410.778,270.918 411.5,270.5C 411.5,270.833 411.5,271.167 411.5,271.5C 411.586,272.496 411.252,273.329 410.5,274C 411.094,274.464 411.761,274.631 412.5,274.5C 412.5,274.833 412.5,275.167 412.5,275.5C 411.402,276.601 411.235,277.934 412,279.5C 412.671,280.252 413.504,280.586 414.5,280.5C 414.5,280.833 414.5,281.167 414.5,281.5C 413.427,282.251 413.26,283.251 414,284.5C 414.383,283.944 414.883,283.611 415.5,283.5C 415.5,283.833 415.5,284.167 415.5,284.5C 414.375,285.652 414.375,286.652 415.5,287.5C 415.285,289.179 415.952,290.179 417.5,290.5C 417.5,290.833 417.5,291.167 417.5,291.5C 416.243,292.623 416.576,293.289 418.5,293.5C 418.5,293.833 418.5,294.167 418.5,294.5C 417.314,295.961 417.314,297.295 418.5,298.5C 418.409,300.698 419.075,301.031 420.5,299.5C 420.5,299.833 420.5,300.167 420.5,300.5C 419.314,301.961 419.314,303.295 420.5,304.5C 420.5,305.833 421.167,306.5 422.5,306.5C 422.5,306.833 422.5,307.167 422.5,307.5C 421.561,308.327 421.895,308.994 423.5,309.5C 424.533,314.098 425.866,318.598 427.5,323C 421.86,322.868 416.193,322.701 410.5,322.5C 410.631,321.761 410.464,321.094 410,320.5C 409.329,321.252 408.496,321.586 407.5,321.5C 391.165,320.22 374.832,320.22 358.5,321.5C 355.539,320 352.872,320.333 350.5,322.5C 347.833,322.5 345.167,322.5 342.5,322.5C 341.504,322.586 340.671,322.252 340,321.5C 339.536,322.094 339.369,322.761 339.5,323.5C 322.986,324.641 306.653,326.975 290.5,330.5C 289.504,330.586 288.671,330.252 288,329.5C 287.536,330.094 287.369,330.761 287.5,331.5C 281.009,332.065 274.676,333.398 268.5,335.5C 260.859,337.037 253.026,339.037 245,341.5C 243.238,341.056 243.405,340.556 245.5,340C 256.441,336.186 267.441,332.686 278.5,329.5C 279.925,331.031 280.591,330.698 280.5,328.5C 281.167,328.5 281.833,328.5 282.5,328.5C 283.925,330.031 284.591,329.698 284.5,327.5C 285.822,327.33 286.989,327.663 288,328.5C 292.134,326.173 296.301,324.84 300.5,324.5C 301.623,325.757 302.289,325.424 302.5,323.5C 305.206,323.425 307.873,323.092 310.5,322.5C 311.779,323.715 312.779,323.382 313.5,321.5C 316.545,321.492 319.545,321.159 322.5,320.5C 324.128,321.853 325.462,321.519 326.5,319.5C 328.167,319.5 329.833,319.5 331.5,319.5C 332.623,320.757 333.289,320.424 333.5,318.5C 334.5,318.5 335.5,318.5 336.5,318.5C 338.598,319.484 340.598,319.151 342.5,317.5C 348.189,317.468 353.855,317.134 359.5,316.5C 362.907,317.268 366.24,316.934 369.5,315.5C 382.019,315.258 394.519,315.591 407,316.5C 411.776,316.87 414.943,314.87 416.5,310.5C 419.167,308.5 419.167,306.5 416.5,304.5C 418.129,302.804 417.796,301.804 415.5,301.5C 415.5,301.167 415.5,300.833 415.5,300.5C 416.439,299.673 416.105,299.006 414.5,298.5C 413.862,296.54 413.862,294.707 414.5,293C 413.244,292.583 412.577,291.75 412.5,290.5C 413.439,289.673 413.105,289.006 411.5,288.5C 411.5,288.167 411.5,287.833 411.5,287.5C 412.439,286.673 412.105,286.006 410.5,285.5C 410.414,284.504 410.748,283.671 411.5,283C 410.584,282.722 409.918,282.222 409.5,281.5C 410.757,280.377 410.424,279.711 408.5,279.5C 408.5,279.167 408.5,278.833 408.5,278.5C 409.043,278.44 409.376,278.107 409.5,277.5C 409.043,275.402 408.043,273.736 406.5,272.5C 406.5,272.167 406.5,271.833 406.5,271.5C 407.439,270.673 407.105,270.006 405.5,269.5C 405.5,269.167 405.5,268.833 405.5,268.5C 406.757,267.377 406.424,266.711 404.5,266.5C 404.5,266.167 404.5,265.833 404.5,265.5C 405.757,264.377 405.424,263.711 403.5,263.5C 403.5,263.167 403.5,262.833 403.5,262.5C 404.715,261.221 404.382,260.221 402.5,259.5C 404.129,257.804 403.796,256.804 401.5,256.5C 401.611,255.883 401.944,255.383 402.5,255C 401.244,254.583 400.577,253.75 400.5,252.5C 394.267,249.479 387.601,247.646 380.5,247C 345.027,241.999 309.693,242.832 274.5,249.5C 274.565,249.062 274.399,248.728 274,248.5C 273.005,249.066 272.172,249.733 271.5,250.5C 255.571,253.066 239.904,256.732 224.5,261.5C 234.917,256.498 245.251,252.165 255.5,248.5C 256.327,249.439 256.994,249.105 257.5,247.5C 257.833,247.5 258.167,247.5 258.5,247.5C 259.327,248.439 259.994,248.105 260.5,246.5C 260.833,246.5 261.167,246.5 261.5,246.5C 262.327,247.439 262.994,247.105 263.5,245.5C 274.803,242.593 286.469,239.76 298.5,237C 310.735,234.604 323.068,232.937 335.5,232C 339.879,230.432 342.212,227.265 342.5,222.5C 344.105,221.994 344.439,221.327 343.5,220.5C 343.892,218.821 344.392,217.154 345,215.5C 345.263,220.017 346.263,224.351 348,228.5C 350.152,229.885 352.485,230.885 355,231.5C 364.932,226.401 372.766,219.067 378.5,209.5C 379.04,210.561 379.374,211.561 379.5,212.5C 379.5,213.167 379.5,213.833 379.5,214.5C 377.618,215.221 377.285,216.221 378.5,217.5C 378.5,217.833 378.5,218.167 378.5,218.5C 376.618,219.221 376.285,220.221 377.5,221.5C 377.785,230.291 382.118,233.458 390.5,231C 420.758,202.468 428.925,168.634 415,129.5C 399.217,97.5161 373.384,83.0161 337.5,86C 319.158,88.7799 302.158,95.1133 286.5,105C 275.325,112.42 264.325,120.087 253.5,128C 232.873,144.959 212.539,162.292 192.5,180C 183.883,187.131 174.883,193.631 165.5,199.5C 178.772,186.729 191.938,173.729 205,160.5C 226.562,134.604 250.395,111.104 276.5,90C 312.09,65.4827 350.923,58.316 393,68.5C 394.533,68.2272 396.033,67.8938 397.5,67.5 Z M 386.5,219.5 C 387.167,219.5 387.833,219.5 388.5,219.5C 387.833,222.167 387.167,222.167 386.5,219.5 Z M 29.5,246.5 C 29.8333,246.5 30.1667,246.5 30.5,246.5C 30.1236,253.092 31.1236,259.425 33.5,265.5C 32.2426,266.623 32.5759,267.289 34.5,267.5C 39.117,280.817 48.117,291.65 61.5,300C 80.2791,308.645 99.7791,310.811 120,306.5C 120.309,307.766 120.809,308.933 121.5,310C 121.167,310.333 120.833,310.667 120.5,311C 121.416,311.278 122.082,311.778 122.5,312.5C 121.89,313.391 121.557,314.391 121.5,315.5C 120.395,314.4 119.062,313.733 117.5,313.5C 118.853,312.133 118.519,311.133 116.5,310.5C 115.304,310.846 115.304,311.346 116.5,312C 114.292,312.191 112.292,312.691 110.5,313.5C 98.8096,314.999 87.1429,314.832 75.5,313C 42.0535,303.666 26.7201,281.5 29.5,246.5 Z M 123.5,314.5 C 127.222,325.608 131.222,336.608 135.5,347.5C 138.556,351.241 142.556,352.407 147.5,351C 155.627,346.602 163.96,342.768 172.5,339.5C 160.811,346.434 149.311,353.768 138,361.5C 137.062,359.512 136.228,357.512 135.5,355.5C 136.439,354.673 136.105,354.006 134.5,353.5C 130.371,341.137 126.038,328.47 121.5,315.5C 122.167,315.167 122.833,314.833 123.5,314.5 Z"/></g>
<g><path style="opacity:0.522" fill="#8e4f4c" d="M 223.5,11.5 C 222.791,12.404 221.791,12.7373 220.5,12.5C 221.172,11.7326 222.005,11.0659 223,10.5C 223.399,10.7284 223.565,11.0618 223.5,11.5 Z"/></g>
<g><path style="opacity:0.516" fill="#90524e" d="M 298.5,12.5 C 296.901,12.7678 295.568,12.4345 294.5,11.5C 296.001,10.5573 297.335,10.8906 298.5,12.5 Z"/></g>
<g><path style="opacity:0.451" fill="#8a4946" d="M 317.5,16.5 C 316.508,16.6716 315.842,16.3382 315.5,15.5C 316.327,14.5613 316.994,14.8946 317.5,16.5 Z"/></g>
<g><path style="opacity:0.242" fill="#8a4a48" d="M 242.5,18.5 C 245.287,17.5233 248.287,17.19 251.5,17.5C 248.557,18.8268 245.557,19.1601 242.5,18.5 Z"/></g>
<g><path style="opacity:0.508" fill="#935654" d="M 343.5,55.5 C 342.081,56.4511 340.415,56.7845 338.5,56.5C 340.074,55.0719 341.741,54.7386 343.5,55.5 Z"/></g>
<g><path style="opacity:0.929" fill="#caa6a3" d="M 249.5,101.5 C 244.443,107.559 238.776,112.893 232.5,117.5C 237.557,111.441 243.224,106.107 249.5,101.5 Z"/></g>
<g><path style="opacity:0.827" fill="#ba8c87" d="M 232.5,117.5 C 231.833,120.167 230.167,121.833 227.5,122.5C 228.833,120.5 230.5,118.833 232.5,117.5 Z"/></g>
<g><path style="opacity:0.227" fill="#8d4e4d" d="M 443.5,128.5 C 444.451,129.919 444.784,131.585 444.5,133.5C 443.072,131.926 442.739,130.259 443.5,128.5 Z"/></g>
<g><path style="opacity:0.507" fill="#955956" d="M 452.5,133.5 C 453.391,134.261 454.058,135.261 454.5,136.5C 453.167,139.833 453.167,143.167 454.5,146.5C 453.972,148.336 453.306,150.003 452.5,151.5C 452.5,145.5 452.5,139.5 452.5,133.5 Z"/></g>
<g><path style="opacity:0.737" fill="#ad7c7a" d="M 380.5,139.5 C 381.906,139.973 382.573,140.973 382.5,142.5C 381.596,143.209 381.263,144.209 381.5,145.5C 380.539,143.735 380.205,141.735 380.5,139.5 Z"/></g>
<g><path style="opacity:0.518" fill="#90524e" d="M 477.5,142.5 C 479.138,143.705 479.471,145.038 478.5,146.5C 477.566,145.432 477.232,144.099 477.5,142.5 Z"/></g>
<g><path style="opacity:0.235" fill="#7c3634" d="M 411.5,150.5 C 412.338,150.842 412.672,151.508 412.5,152.5C 410.895,151.994 410.561,151.327 411.5,150.5 Z"/></g>
<g><path style="opacity:0.675" fill="#a87371" d="M 326.5,152.5 C 325.662,152.842 325.328,153.508 325.5,154.5C 324.152,153.473 323.652,152.14 324,150.5C 324.995,151.066 325.828,151.733 326.5,152.5 Z"/></g>
<g><path style="opacity:0.298" fill="#803a38" d="M 444.5,150.5 C 444.737,151.791 444.404,152.791 443.5,153.5C 443.062,153.565 442.728,153.399 442.5,153C 443.066,152.005 443.733,151.172 444.5,150.5 Z"/></g>
<g><path style="opacity:0.498" fill="#8e4f4c" d="M 443.5,158.5 C 443.737,159.791 443.404,160.791 442.5,161.5C 442.062,161.565 441.728,161.399 441.5,161C 442.066,160.005 442.733,159.172 443.5,158.5 Z"/></g>
<g><path style="opacity:0.236" fill="#8e4f4c" d="M 412.5,156.5 C 413.833,161.167 413.833,165.833 412.5,170.5C 412.5,165.833 412.5,161.167 412.5,156.5 Z"/></g>
<g><path style="opacity:0.376" fill="#8d4e4b" d="M 451.5,162.5 C 452.815,163.895 452.481,164.895 450.5,165.5C 450.263,164.209 450.596,163.209 451.5,162.5 Z"/></g>
<g><path style="opacity:0.302" fill="#79312e" d="M 381.5,177.5 C 381.443,178.609 381.11,179.609 380.5,180.5C 379.285,179.221 379.618,178.221 381.5,177.5 Z"/></g>
<g><path style="opacity:0.439" fill="#965a57" d="M 447.5,178.5 C 448.815,179.895 448.481,180.895 446.5,181.5C 446.263,180.209 446.596,179.209 447.5,178.5 Z"/></g>
<g><path style="opacity:0.746" fill="#b38583" d="M 126.5,186.5 C 135.714,186.546 135.714,187.213 126.5,188.5C 126.5,187.833 126.5,187.167 126.5,186.5 Z"/></g>
<g><path style="opacity:0.671" fill="#a36e6c" d="M 163.5,200.5 C 163.489,202.686 162.489,203.519 160.5,203C 161.373,201.955 162.373,201.122 163.5,200.5 Z"/></g>
<g><path style="opacity:0.435" fill="#90524f" d="M 389.5,205.5 C 390.443,207.001 390.109,208.335 388.5,209.5C 388.232,207.901 388.566,206.568 389.5,205.5 Z"/></g>
<g><path style="opacity:0.682" fill="#9b615c" d="M 378.5,209.5 C 378.842,208.662 379.508,208.328 380.5,208.5C 380.768,210.099 380.434,211.432 379.5,212.5C 379.374,211.561 379.04,210.561 378.5,209.5 Z"/></g>
<g><path style="opacity:0.063" fill="#6b1c1a" d="M 388.5,212.5 C 389.715,213.779 389.382,214.779 387.5,215.5C 387.557,214.391 387.89,213.391 388.5,212.5 Z"/></g>
<g><path style="opacity:0.431" fill="#884642" d="M 379.5,214.5 C 379.443,215.609 379.11,216.609 378.5,217.5C 377.285,216.221 377.618,215.221 379.5,214.5 Z"/></g>
<g><path style="opacity:0.808" fill="#c09692" d="M 365.5,212.5 C 364.167,215.833 361.833,218.167 358.5,219.5C 360.5,216.833 362.833,214.5 365.5,212.5 Z"/></g>
<g><path style="opacity:0.014" fill="#681816" d="M 387.5,217.5 C 388.338,217.842 388.672,218.508 388.5,219.5C 387.833,219.5 387.167,219.5 386.5,219.5C 386.833,218.833 387.167,218.167 387.5,217.5 Z"/></g>
<g><path style="opacity:0.365" fill="#85413f" d="M 335.5,217.5 C 335.672,218.492 335.338,219.158 334.5,219.5C 333.561,218.673 333.895,218.006 335.5,217.5 Z"/></g>
<g><path style="opacity:0.576" fill="#a26d6b" d="M 21.5,216.5 C 21.7678,218.099 21.4345,219.432 20.5,220.5C 20.67,219.178 20.3366,218.011 19.5,217C 20.0944,216.536 20.7611,216.369 21.5,216.5 Z"/></g>
<g><path style="opacity:0.298" fill="#772e2b" d="M 378.5,218.5 C 378.443,219.609 378.11,220.609 377.5,221.5C 376.285,220.221 376.618,219.221 378.5,218.5 Z"/></g>
<g><path style="opacity:0.145" fill="#823d3a" d="M 343.5,220.5 C 344.439,221.327 344.105,221.994 342.5,222.5C 342.328,221.508 342.662,220.842 343.5,220.5 Z"/></g>
<g><path style="opacity:0.518" fill="#90524f" d="M 497.5,219.5 C 498.167,220.167 498.833,220.833 499.5,221.5C 499.5,221.833 499.5,222.167 499.5,222.5C 498.833,222.5 498.5,222.833 498.5,223.5C 497.566,222.432 497.232,221.099 497.5,219.5 Z"/></g>
<g><path style="opacity:0.747" fill="#b98e8c" d="M 334.5,220.5 C 334.5,221.833 334.5,223.167 334.5,224.5C 331.167,224.5 327.833,224.5 324.5,224.5C 325.531,223.751 326.698,223.085 328,222.5C 329.699,223.406 331.533,223.739 333.5,223.5C 333.263,222.209 333.596,221.209 334.5,220.5 Z"/></g>
<g><path style="opacity:0.02" fill="#5d0504" d="M 27.5,235.5 C 27.8966,234.475 28.5632,234.308 29.5,235C 28.9056,235.464 28.2389,235.631 27.5,235.5 Z"/></g>
<g><path style="opacity:0.294" fill="#722623" d="M 85.5,233.5 C 85.0825,234.222 84.4158,234.722 83.5,235C 84.0944,235.464 84.7611,235.631 85.5,235.5C 85.2648,236.097 84.7648,236.43 84,236.5C 80.9211,234.669 81.4211,233.669 85.5,233.5 Z"/></g>
<g><path style="opacity:0.008" fill="#732824" d="M 27.5,237.5 C 28.8333,237.5 29.5,238.167 29.5,239.5C 28.5,239.167 27.8333,238.5 27.5,237.5 Z"/></g>
<g><path style="opacity:0.631" fill="#a16b6a" d="M 31.5,239.5 C 31.3259,241.861 30.9926,244.194 30.5,246.5C 30.1667,246.5 29.8333,246.5 29.5,246.5C 29.5,244.5 29.5,242.5 29.5,240.5C 30.1667,240.167 30.8333,239.833 31.5,239.5 Z"/></g>
<g><path style="opacity:0.18" fill="#7f3a37" d="M 263.5,245.5 C 262.994,247.105 262.327,247.439 261.5,246.5C 261.842,245.662 262.508,245.328 263.5,245.5 Z"/></g>
<g><path style="opacity:0.102" fill="#7a322f" d="M 260.5,246.5 C 259.994,248.105 259.327,248.439 258.5,247.5C 258.842,246.662 259.508,246.328 260.5,246.5 Z"/></g>
<g><path style="opacity:0.235" fill="#955a59" d="M 20.5,251.5 C 20.6716,250.508 20.3382,249.842 19.5,249.5C 19.7086,248.078 20.2086,246.745 21,245.5C 21.7891,247.712 21.6225,249.712 20.5,251.5 Z"/></g>
<g><path style="opacity:0.11" fill="#7a322f" d="M 257.5,247.5 C 256.994,249.105 256.327,249.439 255.5,248.5C 255.842,247.662 256.508,247.328 257.5,247.5 Z"/></g>
<g><path style="opacity:0.443" fill="#884743" d="M 274.5,249.5 C 273.791,250.404 272.791,250.737 271.5,250.5C 272.172,249.733 273.005,249.066 274,248.5C 274.399,248.728 274.565,249.062 274.5,249.5 Z"/></g>
<g><path style="opacity:0.016" fill="#6e211c" d="M 403.5,251.5 C 403.833,251.5 404.167,251.5 404.5,251.5C 405.551,252.222 406.218,253.222 406.5,254.5C 405.833,254.5 405.5,254.833 405.5,255.5C 404.326,254.486 403.66,253.153 403.5,251.5 Z"/></g>
<g><path style="opacity:0.502" fill="#a46f6d" d="M 300.5,254.5 C 302.948,253.527 305.615,253.194 308.5,253.5C 306.444,254.216 304.277,254.883 302,255.5C 301.617,254.944 301.117,254.611 300.5,254.5 Z"/></g>
<g><path style="opacity:0.017" fill="#712520" d="M 405.5,255.5 C 407.048,255.821 407.715,256.821 407.5,258.5C 406.833,258.5 406.5,258.833 406.5,259.5C 405.566,258.432 405.232,257.099 405.5,255.5 Z"/></g>
<g><path style="opacity:0.706" fill="#a06863" d="M 401.5,256.5 C 403.796,256.804 404.129,257.804 402.5,259.5C 401.596,258.791 401.263,257.791 401.5,256.5 Z"/></g>
<g><path style="opacity:0.012" fill="#6d201c" d="M 402.5,259.5 C 404.382,260.221 404.715,261.221 403.5,262.5C 402.89,261.609 402.557,260.609 402.5,259.5 Z"/></g>
<g><path style="opacity:0.102" fill="#752a27" d="M 406.5,259.5 C 407.833,259.5 408.5,260.167 408.5,261.5C 408.5,260.167 407.833,259.5 406.5,259.5 Z"/></g>
<g><path style="opacity:0.018" fill="#6b1d1a" d="M 403.5,263.5 C 405.424,263.711 405.757,264.377 404.5,265.5C 404.167,264.833 403.833,264.167 403.5,263.5 Z"/></g>
<g><path style="opacity:0.106" fill="#762b28" d="M 408.5,262.5 C 409.338,262.842 409.672,263.508 409.5,264.5C 408.833,264.5 408.5,264.833 408.5,265.5C 407.167,264.5 407.167,263.5 408.5,262.5 Z"/></g>
<g><path style="opacity:0.38" fill="#803a36" d="M 417.5,262.5 C 419.105,263.006 419.439,263.673 418.5,264.5C 417.662,264.158 417.328,263.492 417.5,262.5 Z"/></g>
<g><path style="opacity:0.106" fill="#702221" d="M 20.5,264.5 C 21.3382,264.842 21.6716,265.508 21.5,266.5C 19.3227,267.504 18.9893,266.838 20.5,264.5 Z"/></g>
<g><path style="opacity:0.012" fill="#641111" d="M 408.5,265.5 C 408.833,265.5 409.167,265.5 409.5,265.5C 409.833,266.167 410.167,266.833 410.5,267.5C 408.797,268.66 408.131,267.993 408.5,265.5 Z"/></g>
<g><path style="opacity:0.098" fill="#772e2a" d="M 33.5,265.5 C 34.3382,265.842 34.6716,266.508 34.5,267.5C 32.5759,267.289 32.2426,266.623 33.5,265.5 Z"/></g>
<g><path style="opacity:0.022" fill="#651313" d="M 404.5,266.5 C 406.424,266.711 406.757,267.377 405.5,268.5C 405.167,267.833 404.833,267.167 404.5,266.5 Z"/></g>
<g><path style="opacity:0.302" fill="#8a4844" d="M 410.5,268.5 C 411.338,268.842 411.672,269.508 411.5,270.5C 410.778,270.918 410.278,271.584 410,272.5C 409.421,271.072 409.588,269.738 410.5,268.5 Z"/></g>
<g><path style="opacity:0.447" fill="#884542" d="M 405.5,269.5 C 407.105,270.006 407.439,270.673 406.5,271.5C 405.662,271.158 405.328,270.492 405.5,269.5 Z"/></g>
<g><path style="opacity:0.238" fill="#874543" d="M 490.5,269.5 C 490.784,271.415 490.451,273.081 489.5,274.5C 489.062,274.565 488.728,274.399 488.5,274C 489.099,272.378 489.766,270.878 490.5,269.5 Z"/></g>
<g><path style="opacity:0.016" fill="#6f231f" d="M 406.5,272.5 C 408.043,273.736 409.043,275.402 409.5,277.5C 409.376,278.107 409.043,278.44 408.5,278.5C 407.637,276.579 406.971,274.579 406.5,272.5 Z"/></g>
<g><path style="opacity:0.012" fill="#7d3530" d="M 411.5,271.5 C 412.404,272.209 412.737,273.209 412.5,274.5C 411.761,274.631 411.094,274.464 410.5,274C 411.252,273.329 411.586,272.496 411.5,271.5 Z"/></g>
<g><path style="opacity:0.384" fill="#8e4f4a" d="M 22.5,273.5 C 23.404,274.209 23.7373,275.209 23.5,276.5C 21.5188,275.895 21.1854,274.895 22.5,273.5 Z"/></g>
<g><path style="opacity:0.019" fill="#6a1b18" d="M 412.5,275.5 C 413.338,275.842 413.672,276.508 413.5,277.5C 413.062,277.435 412.728,277.601 412.5,278C 413.756,278.417 414.423,279.25 414.5,280.5C 413.504,280.586 412.671,280.252 412,279.5C 411.235,277.934 411.402,276.601 412.5,275.5 Z"/></g>
<g><path style="opacity:0.439" fill="#965a57" d="M 23.5,276.5 C 24.404,277.209 24.7373,278.209 24.5,279.5C 22.5188,278.895 22.1854,277.895 23.5,276.5 Z"/></g>
<g><path style="opacity:0.573" fill="#945752" d="M 408.5,279.5 C 410.424,279.711 410.757,280.377 409.5,281.5C 408.662,281.158 408.328,280.492 408.5,279.5 Z"/></g>
<g><path style="opacity:0.016" fill="#6a1b19" d="M 489.5,278.5 C 489.371,280.216 489.038,281.883 488.5,283.5C 487.322,281.662 487.655,279.995 489.5,278.5 Z"/></g>
<g><path style="opacity:0.51" fill="#90524e" d="M 7.5,281.5 C 8.43448,282.568 8.76781,283.901 8.5,285.5C 6.86242,284.295 6.52909,282.962 7.5,281.5 Z"/></g>
<g><path style="opacity:0.018" fill="#641111" d="M 414.5,281.5 C 414.833,282.167 415.167,282.833 415.5,283.5C 414.883,283.611 414.383,283.944 414,284.5C 413.26,283.251 413.427,282.251 414.5,281.5 Z"/></g>
<g><path style="opacity:0.396" fill="#894844" d="M 497.5,283.5 C 497.938,283.435 498.272,283.601 498.5,284C 497.915,285.302 497.249,286.469 496.5,287.5C 496.232,285.901 496.566,284.568 497.5,283.5 Z"/></g>
<g><path style="opacity:0.298" fill="#8d4c48" d="M 415.5,284.5 C 416.338,284.842 416.672,285.508 416.5,286.5C 415.833,286.5 415.5,286.833 415.5,287.5C 414.375,286.652 414.375,285.652 415.5,284.5 Z"/></g>
<g><path style="opacity:0.447" fill="#884542" d="M 410.5,285.5 C 412.105,286.006 412.439,286.673 411.5,287.5C 410.662,287.158 410.328,286.492 410.5,285.5 Z"/></g>
<g><path style="opacity:0.016" fill="#732823" d="M 415.5,287.5 C 417.048,287.821 417.715,288.821 417.5,290.5C 415.952,290.179 415.285,289.179 415.5,287.5 Z"/></g>
<g><path style="opacity:0.384" fill="#803a36" d="M 411.5,288.5 C 413.105,289.006 413.439,289.673 412.5,290.5C 411.662,290.158 411.328,289.492 411.5,288.5 Z"/></g>
<g><path style="opacity:0.102" fill="#752a27" d="M 417.5,291.5 C 418.338,291.842 418.672,292.508 418.5,293.5C 416.576,293.289 416.243,292.623 417.5,291.5 Z"/></g>
<g><path style="opacity:0.49" fill="#8e4f4c" d="M 487.5,291.5 C 487.737,292.791 487.404,293.791 486.5,294.5C 486.062,294.565 485.728,294.399 485.5,294C 486.066,293.005 486.733,292.172 487.5,291.5 Z"/></g>
<g><path style="opacity:0.722" fill="#a7726d" d="M 495.5,293.5 C 496.872,295.477 496.538,297.144 494.5,298.5C 494.216,296.585 494.549,294.919 495.5,293.5 Z"/></g>
<g><path style="opacity:0.098" fill="#762b28" d="M 418.5,294.5 C 419.338,294.842 419.672,295.508 419.5,296.5C 418.662,296.842 418.328,297.508 418.5,298.5C 417.314,297.295 417.314,295.961 418.5,294.5 Z"/></g>
<g><path style="opacity:0.541" fill="#a36e6c" d="M 123.5,297.5 C 124.947,296.115 125.947,296.448 126.5,298.5C 125.609,297.89 124.609,297.557 123.5,297.5 Z"/></g>
<g><path style="opacity:0.8" fill="#b68784" d="M 159.5,295.5 C 159.5,296.167 159.833,296.5 160.5,296.5C 159,298.179 157.167,299.512 155,300.5C 155.177,297.814 156.677,296.148 159.5,295.5 Z"/></g>
<g><path style="opacity:0.369" fill="#803a36" d="M 405.5,298.5 C 406.338,298.842 406.672,299.508 406.5,300.5C 404.895,299.994 404.561,299.327 405.5,298.5 Z"/></g>
<g><path style="opacity:0.014" fill="#651313" d="M 418.5,298.5 C 419.492,298.328 420.158,298.662 420.5,299.5C 419.075,301.031 418.409,300.698 418.5,298.5 Z"/></g>
<g><path style="opacity:0.439" fill="#8a4946" d="M 414.5,298.5 C 416.105,299.006 416.439,299.673 415.5,300.5C 414.662,300.158 414.328,299.492 414.5,298.5 Z"/></g>
<g><path style="opacity:0.431" fill="#965a57" d="M 406.5,300.5 C 407.404,301.209 407.737,302.209 407.5,303.5C 405.519,302.895 405.185,301.895 406.5,300.5 Z"/></g>
<g><path style="opacity:0.306" fill="#8a4844" d="M 420.5,300.5 C 421.338,300.842 421.672,301.508 421.5,302.5C 420.662,302.842 420.328,303.508 420.5,304.5C 419.314,303.295 419.314,301.961 420.5,300.5 Z"/></g>
<g><path style="opacity:0.706" fill="#a06863" d="M 415.5,301.5 C 417.796,301.804 418.129,302.804 416.5,304.5C 415.596,303.791 415.263,302.791 415.5,301.5 Z"/></g>
<g><path style="opacity:0.369" fill="#8f504c" d="M 421.5,303.5 C 422.404,304.209 422.737,305.209 422.5,306.5C 421.167,306.5 420.5,305.833 420.5,304.5C 421.167,304.5 421.5,304.167 421.5,303.5 Z"/></g>
<g><path style="opacity:0.248" fill="#84403e" d="M 401.5,307.5 C 391.5,307.5 381.5,307.5 371.5,307.5C 380.351,306.781 389.351,306.114 398.5,305.5C 400.038,305.453 401.038,306.12 401.5,307.5 Z"/></g>
<g><path style="opacity:0.515" fill="#8c4c47" d="M 416.5,304.5 C 419.167,306.5 419.167,308.5 416.5,310.5C 416.5,308.5 416.5,306.5 416.5,304.5 Z"/></g>
<g><path style="opacity:0.376" fill="#823e3a" d="M 422.5,307.5 C 423.338,307.842 423.672,308.508 423.5,309.5C 421.895,308.994 421.561,308.327 422.5,307.5 Z"/></g>
<g><path style="opacity:0.404" fill="#90524d" d="M 276.5,308.5 C 280.243,308.459 280.41,309.126 277,310.5C 276.601,310.272 276.435,309.938 276.5,309.5C 276.5,309.167 276.5,308.833 276.5,308.5 Z"/></g>
<g><path style="opacity:0.502" fill="#8b4a46" d="M 117.5,313.5 C 115.167,313.5 112.833,313.5 110.5,313.5C 112.292,312.691 114.292,312.191 116.5,312C 115.304,311.346 115.304,310.846 116.5,310.5C 118.519,311.133 118.853,312.133 117.5,313.5 Z"/></g>
<g><path style="opacity:0.09" fill="#7a312d" d="M 122.5,312.5 C 123.338,312.842 123.672,313.508 123.5,314.5C 122.833,314.833 122.167,315.167 121.5,315.5C 121.557,314.391 121.89,313.391 122.5,312.5 Z"/></g>
<g><path style="opacity:0.267" fill="#915453" d="M 359.5,316.5 C 362.625,315.521 365.958,315.187 369.5,315.5C 366.24,316.934 362.907,317.268 359.5,316.5 Z"/></g>
<g><path style="opacity:0.257" fill="#7f3a36" d="M 342.5,317.5 C 340.598,319.151 338.598,319.484 336.5,318.5C 338.379,317.659 340.379,317.325 342.5,317.5 Z"/></g>
<g><path style="opacity:0.42" fill="#884542" d="M 481.5,316.5 C 481.672,317.492 481.338,318.158 480.5,318.5C 479.561,317.673 479.895,317.006 481.5,316.5 Z"/></g>
<g><path style="opacity:0.376" fill="#833e3a" d="M 326.5,319.5 C 325.462,321.519 324.128,321.853 322.5,320.5C 323.568,319.566 324.901,319.232 326.5,319.5 Z"/></g>
<g><path style="opacity:0.008" fill="#691a18" d="M 333.5,318.5 C 333.289,320.424 332.623,320.757 331.5,319.5C 331.842,318.662 332.508,318.328 333.5,318.5 Z"/></g>
<g><path style="opacity:0.497" fill="#9a615f" d="M 358.5,321.5 C 356.052,322.473 353.385,322.806 350.5,322.5C 352.872,320.333 355.539,320 358.5,321.5 Z"/></g>
<g><path style="opacity:0.247" fill="#803b39" d="M 410.5,322.5 C 409.209,322.737 408.209,322.404 407.5,321.5C 408.496,321.586 409.329,321.252 410,320.5C 410.464,321.094 410.631,321.761 410.5,322.5 Z"/></g>
<g><path style="opacity:0.012" fill="#671515" d="M 313.5,321.5 C 312.779,323.382 311.779,323.715 310.5,322.5C 311.391,321.89 312.391,321.557 313.5,321.5 Z"/></g>
<g><path style="opacity:0.243" fill="#7f3938" d="M 342.5,322.5 C 341.791,323.404 340.791,323.737 339.5,323.5C 339.369,322.761 339.536,322.094 340,321.5C 340.671,322.252 341.504,322.586 342.5,322.5 Z"/></g>
<g><path style="opacity:0.008" fill="#6c1e1b" d="M 302.5,323.5 C 302.289,325.424 301.623,325.757 300.5,324.5C 300.842,323.662 301.508,323.328 302.5,323.5 Z"/></g>
<g><path style="opacity:0.18" fill="#823d3a" d="M 282.5,328.5 C 282.842,327.662 283.508,327.328 284.5,327.5C 284.591,329.698 283.925,330.031 282.5,328.5 Z"/></g>
<g><path style="opacity:0.22" fill="#874542" d="M 278.5,329.5 C 278.842,328.662 279.508,328.328 280.5,328.5C 280.591,330.698 279.925,331.031 278.5,329.5 Z"/></g>
<g><path style="opacity:0.247" fill="#8b4b4a" d="M 357.5,330.5 C 360.625,329.521 363.958,329.187 367.5,329.5C 364.977,330.254 362.311,330.92 359.5,331.5C 358.817,331.137 358.15,330.804 357.5,330.5 Z"/></g>
<g><path style="opacity:0.557" fill="#9b6260" d="M 290.5,330.5 C 289.791,331.404 288.791,331.737 287.5,331.5C 287.369,330.761 287.536,330.094 288,329.5C 288.671,330.252 289.504,330.586 290.5,330.5 Z"/></g>
<g><path style="opacity:0.251" fill="#8c4c4a" d="M 334.5,332.5 C 335.919,331.549 337.585,331.216 339.5,331.5C 337.926,332.928 336.259,333.261 334.5,332.5 Z"/></g>
<g><path style="opacity:0.635" fill="#9e6561" d="M 434.5,333.5 C 436.167,333.5 437.833,333.5 439.5,333.5C 442.001,333.511 442.168,334.178 440,335.5C 438.052,334.891 436.218,334.224 434.5,333.5 Z"/></g>
<g><path style="opacity:0.196" fill="#8e504e" d="M 175.5,338.5 C 175.843,336.775 176.843,336.275 178.5,337C 177.473,337.513 176.473,338.013 175.5,338.5 Z"/></g>
<g><path style="opacity:0.314" fill="#874542" d="M 298.5,337.5 C 297.828,338.267 296.995,338.934 296,339.5C 295.601,339.272 295.435,338.938 295.5,338.5C 296.209,337.596 297.209,337.263 298.5,337.5 Z"/></g>
<g><path style="opacity:0.475" fill="#a26d6c" d="M 238.5,342.5 C 238.5,342.833 238.5,343.167 238.5,343.5C 237.262,344.412 235.928,344.579 234.5,344C 235.745,343.209 237.078,342.709 238.5,342.5 Z"/></g>
<g><path style="opacity:0.361" fill="#803a36" d="M 134.5,353.5 C 136.105,354.006 136.439,354.673 135.5,355.5C 134.662,355.158 134.328,354.492 134.5,353.5 Z"/></g>
<g><path style="opacity:0.929" fill="#b07e7a" d="M 166.5,374.5 C 166.586,375.496 166.252,376.329 165.5,377C 166.094,377.464 166.761,377.631 167.5,377.5C 164.923,379.79 161.923,380.956 158.5,381C 159.416,380.722 160.082,380.222 160.5,379.5C 161.5,379.167 162.167,378.5 162.5,377.5C 163.167,377.5 163.5,377.167 163.5,376.5C 164.79,375.942 165.623,374.942 166,373.5C 166.399,373.728 166.565,374.062 166.5,374.5 Z"/></g>
<g><path style="opacity:0.584" fill="#9d6460" d="M 294.5,487.5 C 295.919,486.549 297.585,486.216 299.5,486.5C 298.144,488.538 296.477,488.872 294.5,487.5 Z"/></g>
</svg>
